<?xml version="1.0" encoding="iso-8859-1"?>
<!-- Uploaded to: SVG Repo, www.svgrepo.com, Generator: SVG Repo Mixer Tools -->
<svg fill="#000000" version="1.1" id="Layer_1" xmlns="http://www.w3.org/2000/svg" xmlns:xlink="http://www.w3.org/1999/xlink" 
	 viewBox="0 0 459.052 459.052" xml:space="preserve">
<g id="XMLID_744_">
	<g>
		<g>
			<rect x="214.433" y="88.662" width="29.218" height="30"/>
			<rect x="119.58" y="88.662" width="29.218" height="30"/>
			<rect x="309.287" y="88.662" width="29.218" height="30"/>
			<path d="M420.552,88.662h-16.411v30h16.411c4.687,0,8.5,3.813,8.5,8.5v258c0,4.687-3.813,8.5-8.5,8.5H38.5
				c-4.687,0-8.5-3.813-8.5-8.5v-258c0-4.687,3.813-8.5,8.5-8.5h15.444v-30H38.5c-21.229,0-38.5,17.271-38.5,38.5v258
				c0,21.229,17.271,38.5,38.5,38.5h382.052c21.229,0,38.5-17.271,38.5-38.5v-258C459.052,105.933,441.781,88.662,420.552,88.662z"
				/>
			<path d="M276.469,137.933c7.079,0,12.818-5.739,12.818-12.818V48.208c0-7.079-5.739-12.818-12.818-12.818
				s-12.818,5.739-12.818,12.818v76.907C263.651,132.194,269.39,137.933,276.469,137.933z"/>
			<path d="M181.616,137.933c7.079,0,12.818-5.739,12.818-12.818V48.208c0-7.079-5.739-12.818-12.818-12.818
				c-7.079,0-12.818,5.739-12.818,12.818v76.907C168.798,132.194,174.537,137.933,181.616,137.933z"/>
			<path d="M86.762,137.933c7.079,0,12.818-5.739,12.818-12.818V48.208c0-7.079-5.739-12.818-12.818-12.818
				c-7.079,0-12.818,5.739-12.818,12.818v76.907C73.944,132.194,79.683,137.933,86.762,137.933z"/>
			<path d="M371.323,137.933c7.079,0,12.818-5.739,12.818-12.818V48.208c0-7.079-5.739-12.818-12.818-12.818
				s-12.818,5.739-12.818,12.818v76.907C358.505,132.194,364.244,137.933,371.323,137.933z"/>
			<path d="M135.05,259.082c-5.858,5.858-5.858,15.355,0,21.213l48.913,48.913c2.928,2.928,6.766,4.394,10.607,4.394
				c3.787,0,7.577-1.426,10.494-4.282l117.33-114.878c5.919-5.795,6.02-15.292,0.224-21.212c-5.796-5.92-15.293-6.02-21.212-0.224
				L194.681,297.499l-38.418-38.417C150.406,253.223,140.908,253.223,135.05,259.082z"/>
		</g>
	</g>
</g>
</svg>